<svg width="962" height="188" viewBox="0 0 962 188" fill="none" xmlns="http://www.w3.org/2000/svg">
<path d="M5.58989 64.77L126.49 3.12997C127.26 2.73997 128.07 2.45997 128.92 2.30997C136.55 0.989966 175.98 -4.20004 215.76 21.46C215.76 21.46 272.2 6.14996 316.21 31.99C321.75 35.24 321.99 43.17 316.66 46.75L194.31 128.81C191.37 130.78 187.54 130.76 184.6 128.8C171.71 120.21 134.03 98.7299 91.2699 108.1C88.8999 108.62 86.4199 108.12 84.4399 106.71C75.7899 100.57 49.0999 84.04 8.8799 81.18C0.109895 80.56 -2.2401 68.74 5.5999 64.75L5.58989 64.77Z" fill="#222C44"/>
<path d="M259.99 107L260.95 132.5C260.95 133.97 260.24 135.34 259.04 136.18L187.95 186.47C186.84 187.25 185.43 187.49 184.12 187.11L47.6501 148.46C47.6501 148.46 47.6301 148.44 47.6201 148.43L46.8501 100.54C46.8501 100.54 46.8501 100.51 46.8601 100.51C47.4401 100.37 68.2201 107.56 84.9101 123.13C84.9101 123.13 142.09 110.14 178.15 140.39C178.73 140.88 179.25 141.41 179.71 141.96C182.52 145.32 187.3 146.22 190.97 143.82L253.01 103.26C256 101.28 259.99 103.42 259.99 107.01V107Z" fill="#222C44"/>
<path d="M297.54 33.77H290.86V112.81H297.54V33.77Z" fill="#222C44"/>
<path d="M309.49 132.83C310.07 131.16 310.39 129.37 310.39 127.5C310.39 125.63 310.07 123.84 309.49 122.18C309.48 122.13 309.46 122.08 309.44 122.03C307.19 115.79 301.21 111.32 294.21 111.32C287.21 111.32 281.23 115.79 278.98 122.03C278.96 122.08 278.94 122.13 278.93 122.18C278.35 123.85 278.03 125.64 278.03 127.5C278.03 129.36 278.35 131.16 278.93 132.83C278.94 132.88 278.96 132.93 278.98 132.98C281.23 139.22 287.21 143.69 294.21 143.69C301.21 143.69 307.19 139.22 309.44 132.98C309.46 132.93 309.48 132.88 309.49 132.83ZM294.2 141.37C293.58 141.37 292.59 140.25 291.76 137.76C291.36 136.56 291.04 135.17 290.8 133.67H297.59C297.36 135.17 297.04 136.56 296.63 137.76C295.8 140.25 294.81 141.37 294.19 141.37H294.2ZM290.53 131.35C290.42 130.11 290.36 128.82 290.36 127.5C290.36 126.18 290.42 124.89 290.53 123.65H297.89C298 124.89 298.06 126.18 298.06 127.5C298.06 128.82 298 130.11 297.89 131.35H290.53ZM280.34 127.5C280.34 126.17 280.53 124.87 280.88 123.65H288.2C288.09 124.91 288.04 126.21 288.04 127.5C288.04 128.79 288.1 130.09 288.2 131.35H280.88C280.53 130.13 280.34 128.84 280.34 127.5ZM294.2 113.64C294.82 113.64 295.81 114.76 296.64 117.25C297.04 118.45 297.36 119.84 297.6 121.34H290.81C291.04 119.84 291.36 118.45 291.77 117.25C292.6 114.76 293.59 113.64 294.21 113.64H294.2ZM300.21 123.65H307.53C307.88 124.87 308.07 126.16 308.07 127.5C308.07 128.84 307.88 130.13 307.53 131.35H300.21C300.32 130.09 300.37 128.79 300.37 127.5C300.37 126.21 300.32 124.91 300.21 123.65ZM306.62 121.33H299.94C299.53 118.48 298.82 115.93 297.83 114.12C301.68 115.16 304.87 117.83 306.62 121.33ZM290.58 114.12C289.59 115.94 288.88 118.49 288.47 121.33H281.79C283.54 117.82 286.73 115.16 290.58 114.12ZM281.79 133.67H288.47C288.88 136.52 289.59 139.07 290.58 140.88C286.73 139.84 283.54 137.17 281.79 133.67ZM297.83 140.88C298.82 139.06 299.53 136.51 299.94 133.67H306.62C304.87 137.18 301.68 139.84 297.83 140.88Z" fill="#222C44"/>
<path d="M294.2 144.52C287.05 144.52 280.61 139.99 278.18 133.25L278.11 133.05C277.5 131.3 277.18 129.42 277.18 127.5C277.18 125.58 277.5 123.7 278.13 121.9L278.21 121.69C280.62 115 287.05 110.48 294.21 110.48C301.37 110.48 307.8 115.01 310.23 121.75L310.3 121.95C310.91 123.7 311.23 125.58 311.23 127.5C311.23 129.42 310.91 131.28 310.29 133.07L310.21 133.3C307.8 139.99 301.36 144.52 294.21 144.52H294.2ZM294.2 112.15C287.75 112.15 281.94 116.23 279.75 122.31C279.13 124.07 278.85 125.77 278.85 127.5C278.85 129.23 279.14 130.93 279.7 132.55C281.94 138.77 287.74 142.85 294.2 142.85C300.66 142.85 306.46 138.77 308.65 132.69L309.49 132.83L308.7 132.55C309.27 130.93 309.55 129.23 309.55 127.5C309.55 125.77 309.26 124.07 308.7 122.45C306.46 116.23 300.66 112.15 294.2 112.15ZM296.16 142.2L297.1 140.48C298 138.83 298.7 136.43 299.12 133.55L299.22 132.84H307.97L307.37 134.05C305.49 137.81 302.1 140.6 298.05 141.7L296.16 142.21V142.2ZM300.66 134.5C300.35 136.37 299.92 138.04 299.39 139.45C301.76 138.42 303.79 136.69 305.19 134.5H300.66ZM292.25 142.2L290.36 141.69C286.32 140.59 282.92 137.81 281.04 134.04L280.44 132.83H289.19L289.29 133.54C289.71 136.43 290.41 138.82 291.31 140.47L292.25 142.19V142.2ZM283.22 134.5C284.62 136.69 286.64 138.42 289.02 139.45C288.49 138.04 288.06 136.37 287.75 134.5H283.22ZM294.2 142.2C293.03 142.2 291.85 140.68 290.97 138.02C290.56 136.79 290.23 135.36 289.98 133.79L289.83 132.83H298.57L298.42 133.79C298.18 135.35 297.85 136.77 297.43 138.02C296.55 140.68 295.37 142.2 294.2 142.2ZM291.8 134.5C292.01 135.6 292.26 136.6 292.56 137.49C293.25 139.56 293.96 140.33 294.21 140.5C294.46 140.33 295.17 139.56 295.86 137.49C296.16 136.59 296.41 135.59 296.62 134.5H291.81H291.8ZM308.15 132.18H299.3L299.38 131.27C299.49 130.03 299.54 128.76 299.54 127.49C299.54 126.22 299.49 124.95 299.38 123.71L299.3 122.8H308.15L308.32 123.4C308.7 124.72 308.9 126.1 308.9 127.48C308.9 128.86 308.71 130.24 308.32 131.56L308.15 132.16V132.18ZM301.11 130.51H306.88C307.11 129.53 307.23 128.51 307.23 127.5C307.23 126.49 307.11 125.47 306.88 124.49H301.11C301.18 125.48 301.21 126.49 301.21 127.5C301.21 128.51 301.18 129.52 301.11 130.51ZM298.64 132.18H289.76L289.69 131.42C289.57 130.14 289.52 128.83 289.52 127.5C289.52 126.17 289.58 124.85 289.69 123.58L289.76 122.82H298.64L298.71 123.58C298.82 124.86 298.88 126.18 298.88 127.5C298.88 128.82 298.82 130.15 298.71 131.42L298.64 132.18ZM291.3 130.51H297.12C297.19 129.52 297.23 128.51 297.23 127.5C297.23 126.49 297.19 125.47 297.12 124.49H291.3C291.23 125.48 291.19 126.49 291.19 127.5C291.19 128.51 291.23 129.53 291.3 130.51ZM289.11 132.18H280.26L280.09 131.58C279.71 130.26 279.51 128.89 279.51 127.5C279.51 126.11 279.7 124.74 280.09 123.42L280.26 122.82H289.11L289.03 123.73C288.92 124.97 288.87 126.24 288.87 127.51C288.87 128.78 288.92 130.04 289.03 131.29L289.11 132.2V132.18ZM281.53 130.51H287.3C287.23 129.51 287.2 128.5 287.2 127.5C287.2 126.5 287.23 125.48 287.3 124.49H281.53C281.3 125.47 281.18 126.48 281.18 127.5C281.18 128.52 281.3 129.53 281.53 130.51ZM307.97 122.17H299.22L299.12 121.46C298.7 118.57 298 116.18 297.1 114.53L296.16 112.81L298.05 113.32C302.09 114.42 305.49 117.2 307.37 120.97L307.97 122.18V122.17ZM300.66 120.5H305.19C303.79 118.31 301.77 116.58 299.39 115.55C299.92 116.96 300.35 118.63 300.66 120.5ZM298.57 122.17H289.83L289.98 121.21C290.22 119.64 290.56 118.22 290.97 116.99C291.85 114.33 293.03 112.81 294.2 112.81C295.37 112.81 296.55 114.33 297.43 116.99C297.84 118.23 298.18 119.65 298.42 121.21L298.57 122.17ZM291.8 120.5H296.61C296.4 119.41 296.15 118.4 295.85 117.51C295.16 115.44 294.45 114.67 294.2 114.5C293.95 114.67 293.24 115.44 292.55 117.51C292.25 118.4 292 119.41 291.79 120.5H291.8ZM289.19 122.17H280.44L281.04 120.96C282.92 117.2 286.31 114.41 290.36 113.31L292.25 112.8L291.31 114.52C290.41 116.17 289.71 118.57 289.29 121.45L289.19 122.16V122.17ZM283.22 120.5H287.75C288.06 118.63 288.49 116.96 289.02 115.55C286.65 116.58 284.62 118.31 283.22 120.5Z" fill="#6556FF"/>
<path d="M352.71 37.26H408.71V51.98H389.92V96.88H371.5V51.98H352.71V37.26Z" fill="#222C44"/>
<path d="M457.88 96.89H442.42V89.89C440.12 92.76 437.79 94.81 435.44 96.03C433.09 97.25 430.21 97.86 426.8 97.86C422.24 97.86 418.67 96.5 416.08 93.77C413.49 91.04 412.2 86.85 412.2 81.18V53.69H428.83V77.44C428.83 80.15 429.33 82.08 430.33 83.22C431.33 84.36 432.74 84.93 434.56 84.93C436.54 84.93 438.16 84.17 439.42 82.65C440.68 81.13 441.31 78.41 441.31 74.47V53.69H457.86V96.88L457.88 96.89Z" fill="#222C44"/>
<path d="M487.9 37.26V53.69H497.01V65.81H487.9V81.11C487.9 82.95 488.08 84.17 488.43 84.76C488.97 85.68 489.92 86.14 491.28 86.14C492.5 86.14 494.21 85.79 496.4 85.08L497.62 96.51C493.53 97.41 489.7 97.85 486.15 97.85C482.03 97.85 478.99 97.32 477.04 96.27C475.09 95.21 473.64 93.61 472.71 91.46C471.78 89.31 471.31 85.82 471.31 81V65.81H465.21V53.69H471.31V45.76L487.9 37.26Z" fill="#222C44"/>
<path d="M502.87 75.41C502.87 68.82 505.09 63.39 509.54 59.12C513.99 54.85 519.99 52.71 527.56 52.71C536.21 52.71 542.74 55.22 547.16 60.23C550.71 64.27 552.49 69.25 552.49 75.16C552.49 81.8 550.29 87.25 545.88 91.49C541.47 95.73 535.38 97.86 527.6 97.86C520.66 97.86 515.05 96.1 510.76 92.57C505.5 88.2 502.87 82.48 502.87 75.41ZM519.46 75.37C519.46 79.22 520.24 82.07 521.8 83.91C523.36 85.75 525.32 86.68 527.68 86.68C530.04 86.68 532.02 85.77 533.56 83.95C535.09 82.13 535.86 79.22 535.86 75.21C535.86 71.47 535.09 68.68 533.54 66.85C531.99 65.02 530.08 64.1 527.8 64.1C525.39 64.1 523.39 65.03 521.82 66.89C520.25 68.75 519.46 71.57 519.46 75.37Z" fill="#222C44"/>
<path d="M560.62 53.69H576.12V60.77C577.61 57.71 579.15 55.6 580.74 54.45C582.33 53.3 584.28 52.72 586.62 52.72C588.96 52.72 591.73 53.48 594.63 55L589.51 66.79C587.56 65.98 586.01 65.57 584.87 65.57C582.7 65.57 581.02 66.46 579.83 68.25C578.12 70.77 577.27 75.49 577.27 82.4V96.88H560.64V53.69H560.62Z" fill="#222C44"/>
<path d="M631.06 79.97L646.8 81.76C645.93 85.04 644.51 87.88 642.53 90.28C640.55 92.68 638.02 94.54 634.95 95.87C631.87 97.2 627.96 97.86 623.22 97.86C618.48 97.86 614.82 97.43 611.77 96.58C608.72 95.73 606.1 94.35 603.9 92.44C601.7 90.53 599.98 88.29 598.73 85.71C597.48 83.14 596.86 79.72 596.86 75.47C596.86 71.22 597.62 67.33 599.14 64.38C600.25 62.21 601.77 60.27 603.7 58.55C605.62 56.83 607.6 55.55 609.64 54.71C612.87 53.38 617 52.72 622.05 52.72C629.1 52.72 634.47 53.98 638.18 56.5C641.89 59.02 644.48 62.71 645.97 67.56L630.39 69.63C629.9 67.79 629.01 66.4 627.73 65.46C626.44 64.52 624.71 64.06 622.54 64.06C619.8 64.06 617.58 65.04 615.89 67C614.2 68.96 613.35 71.93 613.35 75.91C613.35 79.46 614.19 82.15 615.87 83.99C617.55 85.83 619.69 86.75 622.3 86.75C624.47 86.75 626.29 86.19 627.77 85.08C629.25 83.97 630.35 82.26 631.09 79.96L631.06 79.97Z" fill="#222C44"/>
<path d="M652.38 75.41C652.38 68.82 654.6 63.39 659.05 59.12C663.5 54.85 669.5 52.71 677.07 52.71C685.72 52.71 692.25 55.22 696.67 60.23C700.22 64.27 702 69.25 702 75.16C702 81.8 699.8 87.25 695.39 91.49C690.98 95.73 684.89 97.86 677.11 97.86C670.17 97.86 664.56 96.1 660.27 92.57C655.01 88.2 652.38 82.48 652.38 75.41ZM668.97 75.37C668.97 79.22 669.75 82.07 671.31 83.91C672.87 85.75 674.83 86.68 677.19 86.68C679.55 86.68 681.53 85.77 683.07 83.95C684.6 82.13 685.37 79.22 685.37 75.21C685.37 71.47 684.6 68.68 683.05 66.85C681.5 65.02 679.59 64.1 677.31 64.1C674.9 64.1 672.9 65.03 671.33 66.89C669.76 68.75 668.97 71.57 668.97 75.37Z" fill="#222C44"/>
<path d="M709.97 53.69H725.38V60.73C727.68 57.86 730.02 55.8 732.38 54.57C734.74 53.34 737.61 52.72 741 52.72C745.58 52.72 749.17 54.08 751.76 56.81C754.35 59.53 755.64 63.74 755.64 69.44V96.89H739.01V73.14C739.01 70.43 738.51 68.51 737.51 67.38C736.51 66.26 735.1 65.69 733.28 65.69C731.27 65.69 729.65 66.45 728.4 67.97C727.15 69.49 726.53 72.21 726.53 76.15V96.89H709.98V53.7L709.97 53.69Z" fill="#222C44"/>
<path d="M765.52 53.69H780.93V60.73C783.23 57.86 785.57 55.8 787.93 54.57C790.29 53.34 793.16 52.72 796.55 52.72C801.13 52.72 804.72 54.08 807.31 56.81C809.9 59.53 811.19 63.74 811.19 69.44V96.89H794.56V73.14C794.56 70.43 794.06 68.51 793.06 67.38C792.06 66.26 790.65 65.69 788.83 65.69C786.82 65.69 785.2 66.45 783.95 67.97C782.7 69.49 782.08 72.21 782.08 76.15V96.89H765.53V53.7L765.52 53.69Z" fill="#222C44"/>
<path d="M869.03 79.4H835.84C836.14 82.06 836.86 84.04 838 85.34C839.6 87.21 841.69 88.15 844.26 88.15C845.89 88.15 847.43 87.74 848.9 86.93C849.79 86.41 850.76 85.51 851.79 84.2L868.1 85.7C865.6 90.04 862.6 93.15 859.07 95.03C855.54 96.91 850.49 97.86 843.9 97.86C838.18 97.86 833.68 97.05 830.4 95.44C827.12 93.83 824.4 91.26 822.25 87.75C820.09 84.24 819.02 80.11 819.02 75.37C819.02 68.62 821.18 63.16 825.51 58.98C829.84 54.8 835.81 52.72 843.43 52.72C849.61 52.72 854.49 53.66 858.07 55.53C861.65 57.4 864.37 60.11 866.24 63.66C868.11 67.21 869.05 71.83 869.05 77.53V79.4H869.03ZM852.19 71.47C851.86 68.27 851 65.98 849.61 64.6C848.22 63.22 846.38 62.53 844.1 62.53C841.47 62.53 839.37 63.57 837.8 65.66C836.8 66.96 836.16 68.9 835.89 71.48H852.2L852.19 71.47Z" fill="#222C44"/>
<path d="M908.85 79.97L924.59 81.76C923.72 85.04 922.3 87.88 920.32 90.28C918.34 92.68 915.81 94.54 912.74 95.87C909.66 97.2 905.75 97.86 901.01 97.86C896.27 97.86 892.61 97.43 889.56 96.58C886.51 95.73 883.89 94.35 881.69 92.44C879.49 90.53 877.77 88.29 876.52 85.71C875.27 83.14 874.65 79.72 874.65 75.47C874.65 71.22 875.41 67.33 876.93 64.38C878.04 62.21 879.56 60.27 881.49 58.55C883.41 56.83 885.39 55.55 887.43 54.71C890.66 53.38 894.79 52.72 899.84 52.72C906.89 52.72 912.26 53.98 915.97 56.5C919.68 59.02 922.27 62.71 923.76 67.56L908.18 69.63C907.69 67.79 906.8 66.4 905.52 65.46C904.23 64.52 902.5 64.06 900.33 64.06C897.59 64.06 895.37 65.04 893.68 67C891.99 68.96 891.14 71.93 891.14 75.91C891.14 79.46 891.98 82.15 893.66 83.99C895.34 85.83 897.48 86.75 900.09 86.75C902.26 86.75 904.08 86.19 905.56 85.08C907.04 83.97 908.14 82.26 908.88 79.96L908.85 79.97Z" fill="#222C44"/>
<path d="M952.17 37.26V53.69H961.28V65.81H952.17V81.11C952.17 82.95 952.35 84.17 952.7 84.76C953.24 85.68 954.19 86.14 955.55 86.14C956.77 86.14 958.48 85.79 960.67 85.08L961.89 96.51C957.8 97.41 953.97 97.85 950.42 97.85C946.3 97.85 943.26 97.32 941.31 96.27C939.36 95.21 937.91 93.61 936.98 91.46C936.05 89.31 935.58 85.82 935.58 81V65.81H929.48V53.69H935.58V45.76L952.17 37.26Z" fill="#222C44"/>
<path d="M372.89 154.34C370.51 153.03 368.64 151.21 367.28 148.88C365.92 146.55 365.25 143.95 365.25 141.07C365.25 138.19 365.93 135.58 367.28 133.26C368.63 130.93 370.51 129.11 372.91 127.8C375.31 126.49 377.99 125.83 380.96 125.83C383.19 125.83 385.24 126.2 387.13 126.94C389.01 127.68 390.61 128.77 391.92 130.19L389.91 132.2C387.57 129.83 384.62 128.65 381.05 128.65C378.68 128.65 376.53 129.19 374.59 130.28C372.65 131.36 371.13 132.85 370.03 134.73C368.93 136.61 368.38 138.73 368.38 141.07C368.38 143.41 368.93 145.52 370.03 147.41C371.13 149.29 372.65 150.78 374.59 151.86C376.53 152.94 378.68 153.49 381.05 153.49C384.65 153.49 387.6 152.29 389.91 149.89L391.92 151.9C390.61 153.33 389 154.42 387.1 155.18C385.2 155.94 383.14 156.31 380.91 156.31C377.94 156.31 375.27 155.65 372.88 154.34H372.89Z" fill="#222C44"/>
<path d="M420.9 135.57C422.47 137.04 423.25 139.22 423.25 142.1V156.06H420.34V152.55C419.65 153.72 418.65 154.63 417.32 155.29C415.99 155.95 414.42 156.27 412.59 156.27C410.08 156.27 408.08 155.67 406.6 154.47C405.12 153.27 404.37 151.69 404.37 149.72C404.37 147.75 405.06 146.27 406.45 145.1C407.83 143.93 410.04 143.34 413.06 143.34H420.21V141.97C420.21 140.03 419.67 138.55 418.58 137.54C417.5 136.53 415.91 136.02 413.83 136.02C412.4 136.02 411.03 136.26 409.72 136.73C408.41 137.2 407.28 137.85 406.34 138.68L404.97 136.41C406.11 135.44 407.48 134.69 409.08 134.16C410.68 133.63 412.36 133.37 414.13 133.37C417.07 133.37 419.32 134.1 420.89 135.57H420.9ZM418.38 130.03L414.23 127.5L410.08 130.03H407.17L412.74 126.01H415.74L421.31 130.03H418.4H418.38ZM417.48 152.7C418.71 151.92 419.62 150.78 420.22 149.3V145.62H413.16C409.31 145.62 407.38 146.96 407.38 149.64C407.38 150.95 407.88 151.99 408.88 152.74C409.88 153.5 411.28 153.87 413.08 153.87C414.88 153.87 416.26 153.48 417.49 152.69L417.48 152.7ZM414.48 121.77H418.2L423.34 126.44H420.69L414.48 121.77Z" fill="#222C44"/>
<path d="M460.38 133.54V156.06H457.47V151.95C456.67 153.32 455.57 154.38 454.17 155.14C452.77 155.9 451.17 156.27 449.38 156.27C446.44 156.27 444.12 155.45 442.42 153.81C440.72 152.17 439.87 149.76 439.87 146.6V133.54H442.91V146.3C442.91 148.67 443.49 150.47 444.66 151.69C445.83 152.92 447.5 153.53 449.67 153.53C452.04 153.53 453.91 152.81 455.28 151.37C456.65 149.93 457.33 147.92 457.33 145.36V133.54H460.37H460.38Z" fill="#222C44"/>
<path d="M515.45 135.83C517.12 137.47 517.95 139.86 517.95 143V156.06H514.91V143.3C514.91 140.96 514.33 139.18 513.16 137.95C511.99 136.72 510.32 136.11 508.15 136.11C505.72 136.11 503.8 136.83 502.39 138.27C500.98 139.71 500.27 141.7 500.27 144.24V156.06H497.23V133.54H500.14V137.69C500.97 136.32 502.12 135.26 503.59 134.5C505.06 133.74 506.76 133.37 508.71 133.37C511.54 133.37 513.78 134.19 515.45 135.83Z" fill="#222C44"/>
<path d="M538.2 154.79C536.46 153.81 535.09 152.44 534.09 150.7C533.09 148.96 532.59 146.99 532.59 144.79C532.59 142.59 533.09 140.62 534.09 138.88C535.09 137.14 536.46 135.78 538.2 134.81C539.94 133.84 541.9 133.35 544.07 133.35C546.24 133.35 548.19 133.84 549.94 134.81C551.68 135.78 553.04 137.14 554.03 138.88C555.02 140.62 555.51 142.59 555.51 144.79C555.51 146.99 555.02 148.96 554.03 150.7C553.05 152.44 551.68 153.8 549.94 154.79C548.2 155.77 546.24 156.27 544.07 156.27C541.9 156.27 539.95 155.78 538.2 154.79ZM548.37 152.48C549.64 151.75 550.63 150.72 551.35 149.38C552.06 148.04 552.42 146.51 552.42 144.8C552.42 143.09 552.06 141.56 551.35 140.22C550.64 138.88 549.64 137.84 548.37 137.12C547.1 136.39 545.67 136.03 544.07 136.03C542.47 136.03 541.04 136.39 539.77 137.12C538.5 137.85 537.5 138.88 536.77 140.22C536.04 141.56 535.68 143.09 535.68 144.8C535.68 146.51 536.04 148.04 536.77 149.38C537.5 150.72 538.5 151.76 539.77 152.48C541.04 153.21 542.47 153.57 544.07 153.57C545.67 153.57 547.1 153.21 548.37 152.48ZM548.18 130.03L544.03 127.5L539.88 130.03H536.97L542.54 126.01H545.54L551.11 130.03H548.2H548.18ZM553.1 121.77H556.78L550.61 126.44H547.91L553.09 121.77H553.1Z" fill="#222C44"/>
<path d="M570.23 127.97C569.8 127.54 569.59 127.03 569.59 126.43C569.59 125.83 569.8 125.36 570.23 124.93C570.66 124.5 571.19 124.29 571.81 124.29C572.43 124.29 572.97 124.5 573.39 124.91C573.82 125.32 574.03 125.82 574.03 126.39C574.03 127.02 573.82 127.55 573.39 127.97C572.96 128.4 572.43 128.61 571.81 128.61C571.19 128.61 570.65 128.4 570.23 127.97ZM570.27 133.54H573.31V156.06H570.27V133.54Z" fill="#222C44"/>
<path d="M630.97 133.54V153.32C630.97 157.14 630.03 159.98 628.17 161.82C626.3 163.66 623.48 164.58 619.71 164.58C617.63 164.58 615.65 164.27 613.78 163.66C611.91 163.05 610.39 162.2 609.22 161.11L610.76 158.8C611.84 159.77 613.16 160.53 614.72 161.07C616.27 161.61 617.91 161.88 619.62 161.88C622.47 161.88 624.57 161.22 625.91 159.89C627.25 158.56 627.92 156.5 627.92 153.7V150.83C626.98 152.26 625.74 153.34 624.22 154.08C622.69 154.82 621 155.19 619.15 155.19C617.04 155.19 615.12 154.73 613.39 153.8C611.66 152.87 610.31 151.57 609.32 149.9C608.34 148.23 607.84 146.34 607.84 144.23C607.84 142.12 608.33 140.23 609.32 138.58C610.3 136.93 611.65 135.64 613.37 134.73C615.08 133.82 617.01 133.36 619.15 133.36C621.06 133.36 622.79 133.75 624.33 134.52C625.87 135.29 627.11 136.4 628.05 137.86V133.54H630.96H630.97ZM623.87 151.46C625.18 150.76 626.2 149.78 626.93 148.53C627.66 147.27 628.02 145.85 628.02 144.25C628.02 142.65 627.66 141.23 626.93 139.99C626.2 138.75 625.19 137.78 623.89 137.08C622.59 136.38 621.11 136.03 619.46 136.03C617.81 136.03 616.37 136.37 615.07 137.06C613.77 137.75 612.76 138.72 612.03 139.97C611.3 141.23 610.94 142.65 610.94 144.25C610.94 145.85 611.3 147.28 612.03 148.53C612.76 149.79 613.77 150.76 615.07 151.46C616.37 152.16 617.83 152.51 619.46 152.51C621.09 152.51 622.56 152.16 623.87 151.46Z" fill="#222C44"/>
<path d="M648.01 127.97C647.58 127.54 647.37 127.03 647.37 126.43C647.37 125.83 647.58 125.36 648.01 124.93C648.44 124.5 648.97 124.29 649.59 124.29C650.21 124.29 650.75 124.5 651.17 124.91C651.6 125.32 651.81 125.82 651.81 126.39C651.81 127.02 651.6 127.55 651.17 127.97C650.74 128.4 650.21 128.61 649.59 128.61C648.97 128.61 648.43 128.4 648.01 127.97ZM648.05 133.54H651.09V156.06H648.05V133.54Z" fill="#222C44"/>
<path d="M682.77 135.57C684.34 137.04 685.12 139.22 685.12 142.1V156.06H682.21V152.55C681.52 153.72 680.52 154.63 679.19 155.29C677.86 155.95 676.29 156.27 674.46 156.27C671.95 156.27 669.95 155.67 668.47 154.47C666.99 153.27 666.24 151.69 666.24 149.72C666.24 147.75 666.93 146.27 668.32 145.1C669.7 143.93 671.91 143.34 674.93 143.34H682.08V141.97C682.08 140.03 681.54 138.55 680.45 137.54C679.37 136.53 677.78 136.02 675.7 136.02C674.27 136.02 672.9 136.26 671.59 136.73C670.28 137.2 669.15 137.85 668.21 138.68L666.84 136.41C667.98 135.44 669.35 134.69 670.95 134.16C672.55 133.63 674.23 133.37 676 133.37C678.94 133.37 681.19 134.1 682.76 135.57H682.77ZM679.35 152.7C680.58 151.92 681.49 150.78 682.09 149.3V145.62H675.03C671.18 145.62 669.25 146.96 669.25 149.64C669.25 150.95 669.75 151.99 670.75 152.74C671.75 153.5 673.15 153.87 674.95 153.87C676.75 153.87 678.13 153.48 679.36 152.69L679.35 152.7Z" fill="#222C44"/>
<path d="M722.52 155.48C720.85 154.95 719.54 154.29 718.6 153.49L719.97 151.09C720.91 151.83 722.09 152.44 723.52 152.91C724.95 153.38 726.43 153.62 727.97 153.62C730.03 153.62 731.55 153.3 732.53 152.66C733.51 152.02 734.01 151.11 734.01 149.94C734.01 149.11 733.74 148.46 733.2 147.99C732.66 147.52 731.97 147.16 731.14 146.92C730.31 146.68 729.21 146.44 727.84 146.21C726.01 145.87 724.54 145.52 723.43 145.16C722.32 144.8 721.37 144.2 720.58 143.34C719.79 142.48 719.4 141.3 719.4 139.79C719.4 137.91 720.18 136.37 721.75 135.17C723.32 133.97 725.5 133.37 728.3 133.37C729.76 133.37 731.21 133.56 732.67 133.95C734.13 134.34 735.32 134.84 736.27 135.47L734.94 137.91C733.08 136.63 730.87 135.98 728.3 135.98C726.36 135.98 724.9 136.32 723.91 137.01C722.92 137.7 722.43 138.59 722.43 139.71C722.43 140.57 722.71 141.25 723.26 141.76C723.81 142.27 724.51 142.65 725.34 142.89C726.17 143.13 727.31 143.38 728.76 143.64C730.56 143.98 732 144.33 733.08 144.67C734.16 145.01 735.09 145.6 735.86 146.43C736.63 147.26 737.02 148.4 737.02 149.85C737.02 151.82 736.2 153.38 734.56 154.54C732.92 155.7 730.64 156.27 727.73 156.27C725.9 156.27 724.16 156.01 722.49 155.48H722.52Z" fill="#222C44"/>
<path d="M771.52 133.54V156.06H768.61V151.95C767.81 153.32 766.71 154.38 765.31 155.14C763.91 155.9 762.31 156.27 760.52 156.27C757.58 156.27 755.26 155.45 753.56 153.81C751.86 152.17 751.01 149.76 751.01 146.6V133.54H754.05V146.3C754.05 148.67 754.63 150.47 755.81 151.69C756.98 152.92 758.65 153.53 760.82 153.53C763.19 153.53 765.06 152.81 766.43 151.37C767.8 149.93 768.49 147.92 768.49 145.36V133.54H771.53H771.52ZM769.42 133.5H770.06C771 133.5 771.71 133.24 772.18 132.71C772.65 132.18 772.89 131.49 772.89 130.63C772.89 129.6 772.6 128.69 772.03 127.89L774.04 127.12C774.78 128.15 775.15 129.35 775.15 130.72C775.15 132.29 774.71 133.54 773.82 134.47C772.94 135.4 771.68 135.86 770.05 135.86H769.41V133.51L769.42 133.5Z" fill="#222C44"/>
</svg>
