<svg width="100" height="80" viewBox="0 0 321 187" fill="none" xmlns="http://www.w3.org/2000/svg">
<path d="M5.28999 64.08L126.19 2.44C126.96 2.05 127.77 1.76999 128.62 1.61999C136.25 0.299994 175.68 -4.89001 215.46 20.77C215.46 20.77 271.9 5.45999 315.91 31.3C321.45 34.55 321.69 42.48 316.36 46.06L194.01 128.12C191.07 130.09 187.24 130.07 184.3 128.11C171.41 119.52 133.73 98.04 90.97 107.41C88.6 107.93 86.12 107.43 84.14 106.02C75.49 99.88 48.8 83.35 8.57997 80.49C-0.190032 79.87 -2.54003 68.05 5.29997 64.06L5.28999 64.08Z" fill="#222C44"/>
<path d="M259.69 106.3L260.65 131.8C260.65 133.27 259.94 134.64 258.74 135.48L187.65 185.77C186.54 186.55 185.13 186.79 183.82 186.41L47.3501 147.76C47.3501 147.76 47.3301 147.74 47.3201 147.73L46.55 99.84C46.55 99.84 46.5501 99.81 46.5601 99.81C47.1401 99.67 67.92 106.86 84.61 122.43C84.61 122.43 141.79 109.44 177.85 139.69C178.43 140.18 178.95 140.71 179.41 141.26C182.22 144.62 187 145.52 190.67 143.12L252.71 102.56C255.7 100.58 259.69 102.72 259.69 106.31V106.3Z" fill="#222C44"/>
<path d="M297.25 33.08H290.57V112.12H297.25V33.08Z" fill="#222C44"/>
<path d="M309.19 132.13C309.77 130.46 310.09 128.67 310.09 126.8C310.09 124.93 309.77 123.14 309.19 121.48C309.18 121.43 309.16 121.38 309.14 121.33C306.89 115.09 300.91 110.62 293.91 110.62C286.91 110.62 280.93 115.09 278.68 121.33C278.66 121.38 278.64 121.43 278.63 121.48C278.05 123.15 277.73 124.94 277.73 126.8C277.73 128.66 278.05 130.46 278.63 132.13C278.64 132.18 278.66 132.23 278.68 132.28C280.93 138.52 286.91 142.99 293.91 142.99C300.91 142.99 306.89 138.52 309.14 132.28C309.16 132.23 309.18 132.18 309.19 132.13ZM293.91 140.67C293.29 140.67 292.3 139.55 291.47 137.06C291.07 135.86 290.75 134.47 290.51 132.97H297.3C297.07 134.47 296.75 135.86 296.34 137.06C295.51 139.55 294.52 140.67 293.9 140.67H293.91ZM290.23 130.65C290.12 129.41 290.06 128.12 290.06 126.8C290.06 125.48 290.12 124.19 290.23 122.95H297.59C297.7 124.19 297.76 125.48 297.76 126.8C297.76 128.12 297.7 129.41 297.59 130.65H290.23ZM280.04 126.8C280.04 125.47 280.23 124.17 280.58 122.95H287.9C287.79 124.21 287.74 125.51 287.74 126.8C287.74 128.09 287.8 129.39 287.9 130.65H280.58C280.23 129.43 280.04 128.14 280.04 126.8ZM293.91 112.94C294.53 112.94 295.52 114.06 296.35 116.55C296.75 117.75 297.07 119.14 297.31 120.64H290.52C290.75 119.14 291.07 117.75 291.48 116.55C292.31 114.06 293.3 112.94 293.92 112.94H293.91ZM299.91 122.96H307.23C307.58 124.18 307.77 125.47 307.77 126.81C307.77 128.15 307.58 129.44 307.23 130.66H299.91C300.02 129.4 300.07 128.1 300.07 126.81C300.07 125.52 300.02 124.22 299.91 122.96ZM306.32 120.64H299.64C299.23 117.79 298.52 115.24 297.53 113.43C301.38 114.47 304.57 117.14 306.32 120.64ZM290.28 113.42C289.29 115.24 288.58 117.79 288.17 120.63H281.49C283.24 117.12 286.43 114.46 290.28 113.42ZM281.49 132.97H288.17C288.58 135.82 289.29 138.37 290.28 140.18C286.43 139.14 283.24 136.47 281.49 132.97ZM297.53 140.19C298.52 138.37 299.23 135.82 299.64 132.98H306.32C304.57 136.49 301.38 139.15 297.53 140.19Z" fill="#222C44"/>
<path d="M293.91 143.82C286.76 143.82 280.32 139.29 277.89 132.55L277.82 132.35C277.21 130.6 276.89 128.72 276.89 126.8C276.89 124.88 277.21 123 277.84 121.2L277.92 120.99C280.33 114.3 286.76 109.78 293.92 109.78C301.08 109.78 307.51 114.31 309.94 121.05L310.01 121.25C310.62 123 310.94 124.88 310.94 126.8C310.94 128.72 310.62 130.58 310 132.37L309.92 132.6C307.51 139.29 301.07 143.82 293.92 143.82H293.91ZM293.91 111.45C287.46 111.45 281.65 115.53 279.46 121.61C278.84 123.37 278.56 125.07 278.56 126.8C278.56 128.53 278.85 130.23 279.41 131.85C281.65 138.07 287.45 142.15 293.91 142.15C300.37 142.15 306.17 138.07 308.36 131.99L309.2 132.13L308.41 131.85C308.98 130.23 309.26 128.53 309.26 126.8C309.26 125.07 308.97 123.37 308.41 121.75C306.17 115.53 300.37 111.45 293.91 111.45ZM295.86 141.51L296.8 139.79C297.7 138.14 298.4 135.74 298.82 132.86L298.92 132.15H307.67L307.07 133.36C305.19 137.12 301.8 139.91 297.75 141.01L295.86 141.52V141.51ZM300.36 133.81C300.05 135.68 299.62 137.35 299.09 138.76C301.46 137.73 303.49 136 304.89 133.81H300.36ZM291.96 141.51L290.07 141C286.03 139.9 282.63 137.12 280.75 133.35L280.15 132.14H288.9L289 132.85C289.42 135.74 290.12 138.13 291.02 139.78L291.96 141.5V141.51ZM282.93 133.81C284.33 136 286.35 137.73 288.73 138.76C288.2 137.35 287.77 135.68 287.46 133.81H282.93ZM293.91 141.5C292.74 141.5 291.56 139.98 290.68 137.32C290.27 136.09 289.94 134.66 289.69 133.09L289.54 132.13H298.28L298.13 133.09C297.89 134.65 297.56 136.07 297.14 137.32C296.26 139.98 295.08 141.5 293.91 141.5ZM291.5 133.81C291.71 134.91 291.96 135.91 292.26 136.8C292.95 138.87 293.66 139.64 293.91 139.81C294.16 139.64 294.87 138.87 295.56 136.8C295.86 135.9 296.11 134.9 296.32 133.81H291.51H291.5ZM307.86 131.49H299.01L299.09 130.58C299.2 129.34 299.25 128.07 299.25 126.8C299.25 125.53 299.2 124.26 299.09 123.02L299.01 122.11H307.86L308.03 122.71C308.41 124.03 308.61 125.41 308.61 126.79C308.61 128.17 308.42 129.55 308.03 130.87L307.86 131.47V131.49ZM300.81 129.82H306.58C306.81 128.84 306.93 127.82 306.93 126.81C306.93 125.8 306.81 124.78 306.58 123.8H300.81C300.88 124.79 300.91 125.8 300.91 126.81C300.91 127.82 300.88 128.83 300.81 129.82ZM298.35 131.49H289.47L289.4 130.73C289.28 129.45 289.23 128.14 289.23 126.81C289.23 125.48 289.29 124.16 289.4 122.89L289.47 122.13H298.35L298.42 122.89C298.53 124.17 298.59 125.49 298.59 126.81C298.59 128.13 298.53 129.46 298.42 130.73L298.35 131.49ZM291 129.82H296.82C296.89 128.83 296.93 127.82 296.93 126.81C296.93 125.8 296.89 124.78 296.82 123.8H291C290.93 124.79 290.89 125.8 290.89 126.81C290.89 127.82 290.93 128.84 291 129.82ZM288.81 131.49H279.96L279.79 130.89C279.41 129.57 279.21 128.2 279.21 126.81C279.21 125.42 279.4 124.05 279.79 122.73L279.96 122.13H288.81L288.73 123.04C288.62 124.28 288.57 125.55 288.57 126.82C288.57 128.09 288.62 129.35 288.73 130.6L288.81 131.51V131.49ZM281.23 129.82H287C286.93 128.82 286.9 127.81 286.9 126.81C286.9 125.81 286.93 124.79 287 123.8H281.23C281 124.78 280.88 125.79 280.88 126.81C280.88 127.83 281 128.84 281.23 129.82ZM307.67 121.47H298.92L298.82 120.76C298.4 117.87 297.7 115.48 296.8 113.83L295.86 112.11L297.75 112.62C301.79 113.72 305.19 116.5 307.07 120.27L307.67 121.48V121.47ZM300.36 119.8H304.89C303.49 117.61 301.47 115.88 299.09 114.85C299.62 116.26 300.05 117.93 300.36 119.8ZM298.28 121.47H289.54L289.69 120.51C289.93 118.94 290.27 117.52 290.68 116.29C291.56 113.63 292.74 112.11 293.91 112.11C295.08 112.11 296.26 113.63 297.14 116.29C297.55 117.53 297.89 118.95 298.13 120.51L298.28 121.47ZM291.5 119.8H296.31C296.1 118.71 295.85 117.7 295.55 116.81C294.86 114.74 294.15 113.97 293.9 113.8C293.65 113.97 292.94 114.74 292.25 116.81C291.95 117.7 291.7 118.71 291.49 119.8H291.5ZM288.89 121.47H280.14L280.74 120.26C282.62 116.5 286.01 113.71 290.06 112.61L291.95 112.1L291.01 113.82C290.11 115.47 289.41 117.87 288.99 120.75L288.89 121.46V121.47ZM282.93 119.8H287.46C287.77 117.93 288.2 116.26 288.73 114.85C286.36 115.88 284.33 117.61 282.93 119.8Z" fill="#6556FF"/>
</svg>
